<?xml version="1.0" encoding="UTF-8" standalone="no"?><svg xmlns="http://www.w3.org/2000/svg" xmlns:xlink="http://www.w3.org/1999/xlink" contentScriptType="application/ecmascript" contentStyleType="text/css" height="283px" preserveAspectRatio="none" style="width:176px;height:283px;" version="1.1" viewBox="0 0 176 283" width="176px" zoomAndPan="magnify"><defs><filter height="300%" id="fqcfvk1uoynyh" width="300%" x="-1" y="-1"><feGaussianBlur result="blurOut" stdDeviation="2.0"/><feColorMatrix in="blurOut" result="blurOut2" type="matrix" values="0 0 0 0 0 0 0 0 0 0 0 0 0 0 0 0 0 0 .4 0"/><feOffset dx="4.0" dy="4.0" in="blurOut2" result="blurOut3"/><feBlend in="SourceGraphic" in2="blurOut3" mode="normal"/></filter></defs><g><!--MD5=[24245c76612ab5d2bfc4fac89aedecd3]
class OtherComponent--><rect fill="#FEFECE" filter="url(#fqcfvk1uoynyh)" height="48" id="OtherComponent" style="stroke: #A80036; stroke-width: 1.5;" width="139" x="26.5" y="116"/><ellipse cx="41.5" cy="132" fill="#ADD1B2" rx="11" ry="11" style="stroke: #A80036; stroke-width: 1.0;"/><path d="M44.4688,137.6406 Q43.8906,137.9375 43.25,138.0781 Q42.6094,138.2344 41.9063,138.2344 Q39.4063,138.2344 38.0781,136.5938 Q36.7656,134.9375 36.7656,131.8125 Q36.7656,128.6875 38.0781,127.0313 Q39.4063,125.375 41.9063,125.375 Q42.6094,125.375 43.25,125.5313 Q43.9063,125.6875 44.4688,125.9844 L44.4688,128.7031 Q43.8438,128.125 43.25,127.8594 Q42.6563,127.5781 42.0313,127.5781 Q40.6875,127.5781 40,128.6563 Q39.3125,129.7188 39.3125,131.8125 Q39.3125,133.9063 40,134.9844 Q40.6875,136.0469 42.0313,136.0469 Q42.6563,136.0469 43.25,135.7813 Q43.8438,135.5 44.4688,134.9219 L44.4688,137.6406 Z "/><text fill="#000000" font-family="sans-serif" font-size="12" lengthAdjust="spacingAndGlyphs" textLength="107" x="55.5" y="136.1543">OtherComponent</text><line style="stroke: #A80036; stroke-width: 1.5;" x1="27.5" x2="164.5" y1="148" y2="148"/><line style="stroke: #A80036; stroke-width: 1.5;" x1="27.5" x2="164.5" y1="156" y2="156"/><!--MD5=[83b3cf3d23d77c6f1e1b5291a241bc2a]
class MonoBehaviour--><rect fill="#FEFECE" filter="url(#fqcfvk1uoynyh)" height="48" id="MonoBehaviour" style="stroke: #A80036; stroke-width: 1.5;" width="128" x="32" y="8"/><ellipse cx="47" cy="24" fill="#ADD1B2" rx="11" ry="11" style="stroke: #A80036; stroke-width: 1.0;"/><path d="M49.9688,29.6406 Q49.3906,29.9375 48.75,30.0781 Q48.1094,30.2344 47.4063,30.2344 Q44.9063,30.2344 43.5781,28.5938 Q42.2656,26.9375 42.2656,23.8125 Q42.2656,20.6875 43.5781,19.0313 Q44.9063,17.375 47.4063,17.375 Q48.1094,17.375 48.75,17.5313 Q49.4063,17.6875 49.9688,17.9844 L49.9688,20.7031 Q49.3438,20.125 48.75,19.8594 Q48.1563,19.5781 47.5313,19.5781 Q46.1875,19.5781 45.5,20.6563 Q44.8125,21.7188 44.8125,23.8125 Q44.8125,25.9063 45.5,26.9844 Q46.1875,28.0469 47.5313,28.0469 Q48.1563,28.0469 48.75,27.7813 Q49.3438,27.5 49.9688,26.9219 L49.9688,29.6406 Z "/><text fill="#000000" font-family="sans-serif" font-size="12" lengthAdjust="spacingAndGlyphs" textLength="96" x="61" y="28.1543">MonoBehaviour</text><line style="stroke: #A80036; stroke-width: 1.5;" x1="33" x2="159" y1="40" y2="40"/><line style="stroke: #A80036; stroke-width: 1.5;" x1="33" x2="159" y1="48" y2="48"/><!--MD5=[4e13963c9dc916a21a8436ef39422b32]
class Component--><rect fill="#FEFECE" filter="url(#fqcfvk1uoynyh)" height="48" id="Component" style="stroke: #A80036; stroke-width: 1.5;" width="104" x="44" y="224"/><ellipse cx="59" cy="240" fill="#ADD1B2" rx="11" ry="11" style="stroke: #A80036; stroke-width: 1.0;"/><path d="M61.9688,245.6406 Q61.3906,245.9375 60.75,246.0781 Q60.1094,246.2344 59.4063,246.2344 Q56.9063,246.2344 55.5781,244.5938 Q54.2656,242.9375 54.2656,239.8125 Q54.2656,236.6875 55.5781,235.0313 Q56.9063,233.375 59.4063,233.375 Q60.1094,233.375 60.75,233.5313 Q61.4063,233.6875 61.9688,233.9844 L61.9688,236.7031 Q61.3438,236.125 60.75,235.8594 Q60.1563,235.5781 59.5313,235.5781 Q58.1875,235.5781 57.5,236.6563 Q56.8125,237.7188 56.8125,239.8125 Q56.8125,241.9063 57.5,242.9844 Q58.1875,244.0469 59.5313,244.0469 Q60.1563,244.0469 60.75,243.7813 Q61.3438,243.5 61.9688,242.9219 L61.9688,245.6406 Z "/><text fill="#000000" font-family="sans-serif" font-size="12" lengthAdjust="spacingAndGlyphs" textLength="72" x="73" y="244.1543">Component</text><line style="stroke: #A80036; stroke-width: 1.5;" x1="45" x2="147" y1="256" y2="256"/><line style="stroke: #A80036; stroke-width: 1.5;" x1="45" x2="147" y1="264" y2="264"/><!--MD5=[bb703bc5e0e3de2d3e85cd3d4bd4eb6a]
reverse link MonoBehaviour to OtherComponent--><path d="M96,76.02 C96,89.58 96,104.04 96,115.68 " fill="none" id="MonoBehaviour&lt;-OtherComponent" style="stroke: #A80036; stroke-width: 1.0;"/><polygon fill="none" points="89,76,96,56,103,76,89,76" style="stroke: #A80036; stroke-width: 1.0;"/><!--MD5=[6c7dfe577664d69cf636b08bdc5b7f4f]
link OtherComponent to Component--><path d="M96,164 C96,180 96,201.45 96,218.53 " fill="none" id="OtherComponent-&gt;Component" style="stroke: #A80036; stroke-width: 1.0;"/><polygon fill="#A80036" points="96,223.68,100,214.68,96,218.68,92,214.68,96,223.68" style="stroke: #A80036; stroke-width: 1.0;"/><text fill="#000000" font-family="sans-serif" font-size="13" lengthAdjust="spacingAndGlyphs" textLength="75" x="11.8594" y="213.007">Component</text><!--MD5=[555cac5a62b1af8e5a993568730edba7]
@startuml
class OtherComponent {
}
MonoBehaviour <|- - OtherComponent
OtherComponent - -> "Component" Component
@enduml

PlantUML version 1.2020.02(Sun Mar 01 10:22:07 GMT 2020)
(GPL source distribution)
Java Runtime: OpenJDK Runtime Environment
JVM: OpenJDK 64-Bit Server VM
Java Version: 11.0.9+11-Ubuntu-0ubuntu1
Operating System: Linux
Default Encoding: ANSI_X3.4-1968
Language: en
Country: US
--></g></svg>