<?xml version="1.0" encoding="UTF-8" standalone="no"?><svg xmlns="http://www.w3.org/2000/svg" xmlns:xlink="http://www.w3.org/1999/xlink" contentScriptType="application/ecmascript" contentStyleType="text/css" height="283px" preserveAspectRatio="none" style="width:240px;height:283px;" version="1.1" viewBox="0 0 240 283" width="240px" zoomAndPan="magnify"><defs><filter height="300%" id="fpnzyvvyeevyf" width="300%" x="-1" y="-1"><feGaussianBlur result="blurOut" stdDeviation="2.0"/><feColorMatrix in="blurOut" result="blurOut2" type="matrix" values="0 0 0 0 0 0 0 0 0 0 0 0 0 0 0 0 0 0 .4 0"/><feOffset dx="4.0" dy="4.0" in="blurOut2" result="blurOut3"/><feBlend in="SourceGraphic" in2="blurOut3" mode="normal"/></filter></defs><g><!--MD5=[24245c76612ab5d2bfc4fac89aedecd3]
class OtherComponent--><rect fill="#FEFECE" filter="url(#fpnzyvvyeevyf)" height="48" id="OtherComponent" style="stroke: #A80036; stroke-width: 1.5;" width="139" x="81.5" y="116"/><ellipse cx="96.5" cy="132" fill="#ADD1B2" rx="11" ry="11" style="stroke: #A80036; stroke-width: 1.0;"/><path d="M99.4688,137.6406 Q98.8906,137.9375 98.25,138.0781 Q97.6094,138.2344 96.9063,138.2344 Q94.4063,138.2344 93.0781,136.5938 Q91.7656,134.9375 91.7656,131.8125 Q91.7656,128.6875 93.0781,127.0313 Q94.4063,125.375 96.9063,125.375 Q97.6094,125.375 98.25,125.5313 Q98.9063,125.6875 99.4688,125.9844 L99.4688,128.7031 Q98.8438,128.125 98.25,127.8594 Q97.6563,127.5781 97.0313,127.5781 Q95.6875,127.5781 95,128.6563 Q94.3125,129.7188 94.3125,131.8125 Q94.3125,133.9063 95,134.9844 Q95.6875,136.0469 97.0313,136.0469 Q97.6563,136.0469 98.25,135.7813 Q98.8438,135.5 99.4688,134.9219 L99.4688,137.6406 Z "/><text fill="#000000" font-family="sans-serif" font-size="12" lengthAdjust="spacingAndGlyphs" textLength="107" x="110.5" y="136.1543">OtherComponent</text><line style="stroke: #A80036; stroke-width: 1.5;" x1="82.5" x2="219.5" y1="148" y2="148"/><line style="stroke: #A80036; stroke-width: 1.5;" x1="82.5" x2="219.5" y1="156" y2="156"/><!--MD5=[83b3cf3d23d77c6f1e1b5291a241bc2a]
class MonoBehaviour--><rect fill="#FEFECE" filter="url(#fpnzyvvyeevyf)" height="48" id="MonoBehaviour" style="stroke: #A80036; stroke-width: 1.5;" width="128" x="87" y="8"/><ellipse cx="102" cy="24" fill="#ADD1B2" rx="11" ry="11" style="stroke: #A80036; stroke-width: 1.0;"/><path d="M104.9688,29.6406 Q104.3906,29.9375 103.75,30.0781 Q103.1094,30.2344 102.4063,30.2344 Q99.9063,30.2344 98.5781,28.5938 Q97.2656,26.9375 97.2656,23.8125 Q97.2656,20.6875 98.5781,19.0313 Q99.9063,17.375 102.4063,17.375 Q103.1094,17.375 103.75,17.5313 Q104.4063,17.6875 104.9688,17.9844 L104.9688,20.7031 Q104.3438,20.125 103.75,19.8594 Q103.1563,19.5781 102.5313,19.5781 Q101.1875,19.5781 100.5,20.6563 Q99.8125,21.7188 99.8125,23.8125 Q99.8125,25.9063 100.5,26.9844 Q101.1875,28.0469 102.5313,28.0469 Q103.1563,28.0469 103.75,27.7813 Q104.3438,27.5 104.9688,26.9219 L104.9688,29.6406 Z "/><text fill="#000000" font-family="sans-serif" font-size="12" lengthAdjust="spacingAndGlyphs" textLength="96" x="116" y="28.1543">MonoBehaviour</text><line style="stroke: #A80036; stroke-width: 1.5;" x1="88" x2="214" y1="40" y2="40"/><line style="stroke: #A80036; stroke-width: 1.5;" x1="88" x2="214" y1="48" y2="48"/><!--MD5=[949c007af799c7d20482b7ef9f22c52e]
class ExampleComponent--><rect fill="#FEFECE" filter="url(#fpnzyvvyeevyf)" height="48" id="ExampleComponent" style="stroke: #A80036; stroke-width: 1.5;" width="156" x="73" y="224"/><ellipse cx="88" cy="240" fill="#ADD1B2" rx="11" ry="11" style="stroke: #A80036; stroke-width: 1.0;"/><path d="M90.9688,245.6406 Q90.3906,245.9375 89.75,246.0781 Q89.1094,246.2344 88.4063,246.2344 Q85.9063,246.2344 84.5781,244.5938 Q83.2656,242.9375 83.2656,239.8125 Q83.2656,236.6875 84.5781,235.0313 Q85.9063,233.375 88.4063,233.375 Q89.1094,233.375 89.75,233.5313 Q90.4063,233.6875 90.9688,233.9844 L90.9688,236.7031 Q90.3438,236.125 89.75,235.8594 Q89.1563,235.5781 88.5313,235.5781 Q87.1875,235.5781 86.5,236.6563 Q85.8125,237.7188 85.8125,239.8125 Q85.8125,241.9063 86.5,242.9844 Q87.1875,244.0469 88.5313,244.0469 Q89.1563,244.0469 89.75,243.7813 Q90.3438,243.5 90.9688,242.9219 L90.9688,245.6406 Z "/><text fill="#000000" font-family="sans-serif" font-size="12" lengthAdjust="spacingAndGlyphs" textLength="124" x="102" y="244.1543">ExampleComponent</text><line style="stroke: #A80036; stroke-width: 1.5;" x1="74" x2="228" y1="256" y2="256"/><line style="stroke: #A80036; stroke-width: 1.5;" x1="74" x2="228" y1="264" y2="264"/><!--MD5=[bb703bc5e0e3de2d3e85cd3d4bd4eb6a]
reverse link MonoBehaviour to OtherComponent--><path d="M151,76.02 C151,89.58 151,104.04 151,115.68 " fill="none" id="MonoBehaviour&lt;-OtherComponent" style="stroke: #A80036; stroke-width: 1.0;"/><polygon fill="none" points="144,76,151,56,158,76,144,76" style="stroke: #A80036; stroke-width: 1.0;"/><!--MD5=[931cab2b3f1623413e2cb92cbb03b596]
link OtherComponent to ExampleComponent--><path d="M151,164 C151,180 151,201.45 151,218.53 " fill="none" id="OtherComponent-&gt;ExampleComponent" style="stroke: #A80036; stroke-width: 1.0;"/><polygon fill="#A80036" points="151,223.68,155,214.68,151,218.68,147,214.68,151,223.68" style="stroke: #A80036; stroke-width: 1.0;"/><text fill="#000000" font-family="sans-serif" font-size="13" lengthAdjust="spacingAndGlyphs" textLength="130" x="5.1563" y="213.007">ExampleComponent</text><!--MD5=[e2184c05228820242243681e05c8507e]
@startuml
class OtherComponent {
}
MonoBehaviour <|- - OtherComponent
OtherComponent - -> "ExampleComponent" ExampleComponent
@enduml

PlantUML version 1.2020.02(Sun Mar 01 10:22:07 GMT 2020)
(GPL source distribution)
Java Runtime: OpenJDK Runtime Environment
JVM: OpenJDK 64-Bit Server VM
Java Version: 11.0.9+11-Ubuntu-0ubuntu1
Operating System: Linux
Default Encoding: ANSI_X3.4-1968
Language: en
Country: US
--></g></svg>