<?xml version="1.0" encoding="UTF-8" standalone="no"?><svg xmlns="http://www.w3.org/2000/svg" xmlns:xlink="http://www.w3.org/1999/xlink" contentScriptType="application/ecmascript" contentStyleType="text/css" height="175px" preserveAspectRatio="none" style="width:283px;height:175px;" version="1.1" viewBox="0 0 283 175" width="283px" zoomAndPan="magnify"><defs><filter height="300%" id="fj9okszgdwpq" width="300%" x="-1" y="-1"><feGaussianBlur result="blurOut" stdDeviation="2.0"/><feColorMatrix in="blurOut" result="blurOut2" type="matrix" values="0 0 0 0 0 0 0 0 0 0 0 0 0 0 0 0 0 0 .4 0"/><feOffset dx="4.0" dy="4.0" in="blurOut2" result="blurOut3"/><feBlend in="SourceGraphic" in2="blurOut3" mode="normal"/></filter></defs><g><!--MD5=[3c634b536ee83ca98b8e440922e2fe77]
class Dependency--><rect fill="#FEFECE" filter="url(#fj9okszgdwpq)" height="48" id="Dependency" style="stroke: #A80036; stroke-width: 1.5;" width="110" x="162.5" y="116"/><ellipse cx="177.5" cy="132" fill="#ADD1B2" rx="11" ry="11" style="stroke: #A80036; stroke-width: 1.0;"/><path d="M180.4688,137.6406 Q179.8906,137.9375 179.25,138.0781 Q178.6094,138.2344 177.9063,138.2344 Q175.4063,138.2344 174.0781,136.5938 Q172.7656,134.9375 172.7656,131.8125 Q172.7656,128.6875 174.0781,127.0313 Q175.4063,125.375 177.9063,125.375 Q178.6094,125.375 179.25,125.5313 Q179.9063,125.6875 180.4688,125.9844 L180.4688,128.7031 Q179.8438,128.125 179.25,127.8594 Q178.6563,127.5781 178.0313,127.5781 Q176.6875,127.5781 176,128.6563 Q175.3125,129.7188 175.3125,131.8125 Q175.3125,133.9063 176,134.9844 Q176.6875,136.0469 178.0313,136.0469 Q178.6563,136.0469 179.25,135.7813 Q179.8438,135.5 180.4688,134.9219 L180.4688,137.6406 Z "/><text fill="#000000" font-family="sans-serif" font-size="12" lengthAdjust="spacingAndGlyphs" textLength="78" x="191.5" y="136.1543">Dependency</text><line style="stroke: #A80036; stroke-width: 1.5;" x1="163.5" x2="271.5" y1="148" y2="148"/><line style="stroke: #A80036; stroke-width: 1.5;" x1="163.5" x2="271.5" y1="156" y2="156"/><!--MD5=[83b3cf3d23d77c6f1e1b5291a241bc2a]
class MonoBehaviour--><rect fill="#FEFECE" filter="url(#fj9okszgdwpq)" height="48" id="MonoBehaviour" style="stroke: #A80036; stroke-width: 1.5;" width="128" x="77.5" y="8"/><ellipse cx="92.5" cy="24" fill="#ADD1B2" rx="11" ry="11" style="stroke: #A80036; stroke-width: 1.0;"/><path d="M95.4688,29.6406 Q94.8906,29.9375 94.25,30.0781 Q93.6094,30.2344 92.9063,30.2344 Q90.4063,30.2344 89.0781,28.5938 Q87.7656,26.9375 87.7656,23.8125 Q87.7656,20.6875 89.0781,19.0313 Q90.4063,17.375 92.9063,17.375 Q93.6094,17.375 94.25,17.5313 Q94.9063,17.6875 95.4688,17.9844 L95.4688,20.7031 Q94.8438,20.125 94.25,19.8594 Q93.6563,19.5781 93.0313,19.5781 Q91.6875,19.5781 91,20.6563 Q90.3125,21.7188 90.3125,23.8125 Q90.3125,25.9063 91,26.9844 Q91.6875,28.0469 93.0313,28.0469 Q93.6563,28.0469 94.25,27.7813 Q94.8438,27.5 95.4688,26.9219 L95.4688,29.6406 Z "/><text fill="#000000" font-family="sans-serif" font-size="12" lengthAdjust="spacingAndGlyphs" textLength="96" x="106.5" y="28.1543">MonoBehaviour</text><line style="stroke: #A80036; stroke-width: 1.5;" x1="78.5" x2="204.5" y1="40" y2="40"/><line style="stroke: #A80036; stroke-width: 1.5;" x1="78.5" x2="204.5" y1="48" y2="48"/><!--MD5=[a4cf14d1e275c2e13a37d6d1d59e17fa]
class TestBehaviour--><rect fill="#FEFECE" filter="url(#fj9okszgdwpq)" height="48" id="TestBehaviour" style="stroke: #A80036; stroke-width: 1.5;" width="121" x="6" y="116"/><ellipse cx="21" cy="132" fill="#ADD1B2" rx="11" ry="11" style="stroke: #A80036; stroke-width: 1.0;"/><path d="M23.9688,137.6406 Q23.3906,137.9375 22.75,138.0781 Q22.1094,138.2344 21.4063,138.2344 Q18.9063,138.2344 17.5781,136.5938 Q16.2656,134.9375 16.2656,131.8125 Q16.2656,128.6875 17.5781,127.0313 Q18.9063,125.375 21.4063,125.375 Q22.1094,125.375 22.75,125.5313 Q23.4063,125.6875 23.9688,125.9844 L23.9688,128.7031 Q23.3438,128.125 22.75,127.8594 Q22.1563,127.5781 21.5313,127.5781 Q20.1875,127.5781 19.5,128.6563 Q18.8125,129.7188 18.8125,131.8125 Q18.8125,133.9063 19.5,134.9844 Q20.1875,136.0469 21.5313,136.0469 Q22.1563,136.0469 22.75,135.7813 Q23.3438,135.5 23.9688,134.9219 L23.9688,137.6406 Z "/><text fill="#000000" font-family="sans-serif" font-size="12" lengthAdjust="spacingAndGlyphs" textLength="89" x="35" y="136.1543">TestBehaviour</text><line style="stroke: #A80036; stroke-width: 1.5;" x1="7" x2="126" y1="148" y2="148"/><line style="stroke: #A80036; stroke-width: 1.5;" x1="7" x2="126" y1="156" y2="156"/><!--MD5=[9181a66b367463a5b5564af999f1257e]
reverse link MonoBehaviour to Dependency--><path d="M169.93,72.66 C180.32,87.15 191.74,103.07 200.78,115.68 " fill="none" id="MonoBehaviour&lt;-Dependency" style="stroke: #A80036; stroke-width: 1.0;"/><polygon fill="none" points="163.96,76.33,157.99,56,175.33,68.18,163.96,76.33" style="stroke: #A80036; stroke-width: 1.0;"/><!--MD5=[0d6b3c8b5ded319b7d84272a764e9fb6]
reverse link MonoBehaviour to TestBehaviour--><path d="M113.44,72.66 C103.19,87.15 91.92,103.07 83,115.68 " fill="none" id="MonoBehaviour&lt;-TestBehaviour" style="stroke: #A80036; stroke-width: 1.0;"/><polygon fill="none" points="107.96,68.28,125.23,56,119.39,76.37,107.96,68.28" style="stroke: #A80036; stroke-width: 1.0;"/><!--MD5=[826c0f005694d5ec446c4f9da3763b62]
link TestBehaviour to Dependency--><path d="M139.25,140 C139.25,140 146.02,140 148.86,140 " fill="none" id="TestBehaviour-Dependency" style="stroke: #A80036; stroke-width: 1.0;"/><polygon fill="#A80036" points="162.15,140,153.15,136,157.15,140,153.15,144,162.15,140" style="stroke: #A80036; stroke-width: 1.0;"/><line style="stroke: #A80036; stroke-width: 1.0;" x1="157.15" x2="149.15" y1="140" y2="140"/><polygon fill="#FFFFFF" points="127.25,140,133.25,144,139.25,140,133.25,136,127.25,140" style="stroke: #A80036; stroke-width: 1.0;"/><text fill="#000000" font-family="sans-serif" font-size="13" lengthAdjust="spacingAndGlyphs" textLength="80" x="135.8178" y="126.2414">Dependency</text><!--MD5=[f7547df8bb31981a32109c34f27bf7c3]
@startuml
class Dependency {
}
MonoBehaviour <|- - Dependency
class TestBehaviour {
}
MonoBehaviour <|- - TestBehaviour
TestBehaviour o-> "Dependency" Dependency
@enduml

PlantUML version 1.2020.02(Sun Mar 01 10:22:07 GMT 2020)
(GPL source distribution)
Java Runtime: OpenJDK Runtime Environment
JVM: OpenJDK 64-Bit Server VM
Java Version: 11.0.9+11-Ubuntu-0ubuntu1
Operating System: Linux
Default Encoding: ANSI_X3.4-1968
Language: en
Country: US
--></g></svg>