<?xml version="1.0" encoding="UTF-8" standalone="no"?><svg xmlns="http://www.w3.org/2000/svg" xmlns:xlink="http://www.w3.org/1999/xlink" contentScriptType="application/ecmascript" contentStyleType="text/css" height="283px" preserveAspectRatio="none" style="width:211px;height:283px;" version="1.1" viewBox="0 0 211 283" width="211px" zoomAndPan="magnify"><defs><filter height="300%" id="f4e6qh9g1tjb8" width="300%" x="-1" y="-1"><feGaussianBlur result="blurOut" stdDeviation="2.0"/><feColorMatrix in="blurOut" result="blurOut2" type="matrix" values="0 0 0 0 0 0 0 0 0 0 0 0 0 0 0 0 0 0 .4 0"/><feOffset dx="4.0" dy="4.0" in="blurOut2" result="blurOut3"/><feBlend in="SourceGraphic" in2="blurOut3" mode="normal"/></filter></defs><g><!--MD5=[24245c76612ab5d2bfc4fac89aedecd3]
class OtherComponent--><rect fill="#FEFECE" filter="url(#f4e6qh9g1tjb8)" height="48" id="OtherComponent" style="stroke: #A80036; stroke-width: 1.5;" width="139" x="6" y="116"/><ellipse cx="21" cy="132" fill="#ADD1B2" rx="11" ry="11" style="stroke: #A80036; stroke-width: 1.0;"/><path d="M23.9688,137.6406 Q23.3906,137.9375 22.75,138.0781 Q22.1094,138.2344 21.4063,138.2344 Q18.9063,138.2344 17.5781,136.5938 Q16.2656,134.9375 16.2656,131.8125 Q16.2656,128.6875 17.5781,127.0313 Q18.9063,125.375 21.4063,125.375 Q22.1094,125.375 22.75,125.5313 Q23.4063,125.6875 23.9688,125.9844 L23.9688,128.7031 Q23.3438,128.125 22.75,127.8594 Q22.1563,127.5781 21.5313,127.5781 Q20.1875,127.5781 19.5,128.6563 Q18.8125,129.7188 18.8125,131.8125 Q18.8125,133.9063 19.5,134.9844 Q20.1875,136.0469 21.5313,136.0469 Q22.1563,136.0469 22.75,135.7813 Q23.3438,135.5 23.9688,134.9219 L23.9688,137.6406 Z "/><text fill="#000000" font-family="sans-serif" font-size="12" lengthAdjust="spacingAndGlyphs" textLength="107" x="35" y="136.1543">OtherComponent</text><line style="stroke: #A80036; stroke-width: 1.5;" x1="7" x2="144" y1="148" y2="148"/><line style="stroke: #A80036; stroke-width: 1.5;" x1="7" x2="144" y1="156" y2="156"/><!--MD5=[83b3cf3d23d77c6f1e1b5291a241bc2a]
class MonoBehaviour--><rect fill="#FEFECE" filter="url(#f4e6qh9g1tjb8)" height="48" id="MonoBehaviour" style="stroke: #A80036; stroke-width: 1.5;" width="128" x="72.5" y="8"/><ellipse cx="87.5" cy="24" fill="#ADD1B2" rx="11" ry="11" style="stroke: #A80036; stroke-width: 1.0;"/><path d="M90.4688,29.6406 Q89.8906,29.9375 89.25,30.0781 Q88.6094,30.2344 87.9063,30.2344 Q85.4063,30.2344 84.0781,28.5938 Q82.7656,26.9375 82.7656,23.8125 Q82.7656,20.6875 84.0781,19.0313 Q85.4063,17.375 87.9063,17.375 Q88.6094,17.375 89.25,17.5313 Q89.9063,17.6875 90.4688,17.9844 L90.4688,20.7031 Q89.8438,20.125 89.25,19.8594 Q88.6563,19.5781 88.0313,19.5781 Q86.6875,19.5781 86,20.6563 Q85.3125,21.7188 85.3125,23.8125 Q85.3125,25.9063 86,26.9844 Q86.6875,28.0469 88.0313,28.0469 Q88.6563,28.0469 89.25,27.7813 Q89.8438,27.5 90.4688,26.9219 L90.4688,29.6406 Z "/><text fill="#000000" font-family="sans-serif" font-size="12" lengthAdjust="spacingAndGlyphs" textLength="96" x="101.5" y="28.1543">MonoBehaviour</text><line style="stroke: #A80036; stroke-width: 1.5;" x1="73.5" x2="199.5" y1="40" y2="40"/><line style="stroke: #A80036; stroke-width: 1.5;" x1="73.5" x2="199.5" y1="48" y2="48"/><!--MD5=[4e13963c9dc916a21a8436ef39422b32]
class Component--><rect fill="#FEFECE" filter="url(#f4e6qh9g1tjb8)" height="48" id="Component" style="stroke: #A80036; stroke-width: 1.5;" width="104" x="84.5" y="224"/><ellipse cx="99.5" cy="240" fill="#ADD1B2" rx="11" ry="11" style="stroke: #A80036; stroke-width: 1.0;"/><path d="M102.4688,245.6406 Q101.8906,245.9375 101.25,246.0781 Q100.6094,246.2344 99.9063,246.2344 Q97.4063,246.2344 96.0781,244.5938 Q94.7656,242.9375 94.7656,239.8125 Q94.7656,236.6875 96.0781,235.0313 Q97.4063,233.375 99.9063,233.375 Q100.6094,233.375 101.25,233.5313 Q101.9063,233.6875 102.4688,233.9844 L102.4688,236.7031 Q101.8438,236.125 101.25,235.8594 Q100.6563,235.5781 100.0313,235.5781 Q98.6875,235.5781 98,236.6563 Q97.3125,237.7188 97.3125,239.8125 Q97.3125,241.9063 98,242.9844 Q98.6875,244.0469 100.0313,244.0469 Q100.6563,244.0469 101.25,243.7813 Q101.8438,243.5 102.4688,242.9219 L102.4688,245.6406 Z "/><text fill="#000000" font-family="sans-serif" font-size="12" lengthAdjust="spacingAndGlyphs" textLength="72" x="113.5" y="244.1543">Component</text><line style="stroke: #A80036; stroke-width: 1.5;" x1="85.5" x2="187.5" y1="256" y2="256"/><line style="stroke: #A80036; stroke-width: 1.5;" x1="85.5" x2="187.5" y1="264" y2="264"/><!--MD5=[bb703bc5e0e3de2d3e85cd3d4bd4eb6a]
reverse link MonoBehaviour to OtherComponent--><path d="M113.13,73.61 C104.94,87.85 96.02,103.35 88.92,115.68 " fill="none" id="MonoBehaviour&lt;-OtherComponent" style="stroke: #A80036; stroke-width: 1.0;"/><polygon fill="none" points="107.22,69.84,123.26,56,119.36,76.83,107.22,69.84" style="stroke: #A80036; stroke-width: 1.0;"/><!--MD5=[6c7dfe577664d69cf636b08bdc5b7f4f]
link OtherComponent to Component--><path d="M88.74,164 C98.02,180.14 110.5,201.82 120.37,218.97 " fill="none" id="OtherComponent-&gt;Component" style="stroke: #A80036; stroke-width: 1.0;"/><polygon fill="#A80036" points="123.08,223.68,122.0426,213.8859,120.5793,219.3503,115.115,217.887,123.08,223.68" style="stroke: #A80036; stroke-width: 1.0;"/><text fill="#000000" font-family="sans-serif" font-size="13" lengthAdjust="spacingAndGlyphs" textLength="75" x="35.6683" y="213.007">Component</text><!--MD5=[ac6b767f35d9a897b79c03e06ab5816a]
reverse link MonoBehaviour to Component--><path d="M152.51,75.44 C156.61,88.28 160.44,102.55 162.5,116 C165.73,137.09 165.73,142.91 162.5,164 C159.33,184.75 151.93,207.43 145.84,223.84 " fill="none" id="MonoBehaviour&lt;-Component" style="stroke: #A80036; stroke-width: 1.0;"/><polygon fill="none" points="145.76,77.35,145.84,56.16,159,72.77,145.76,77.35" style="stroke: #A80036; stroke-width: 1.0;"/><!--MD5=[2ef176077f3186ed422d730acef46a0f]
@startuml
class OtherComponent {
}
MonoBehaviour <|- - OtherComponent
OtherComponent - -> "Component" Component
class Component {
}
MonoBehaviour <|- - Component
@enduml

PlantUML version 1.2020.02(Sun Mar 01 10:22:07 GMT 2020)
(GPL source distribution)
Java Runtime: OpenJDK Runtime Environment
JVM: OpenJDK 64-Bit Server VM
Java Version: 11.0.9+11-Ubuntu-0ubuntu1
Operating System: Linux
Default Encoding: ANSI_X3.4-1968
Language: en
Country: US
--></g></svg>