<?xml version="1.0" encoding="UTF-8" standalone="no"?><svg xmlns="http://www.w3.org/2000/svg" xmlns:xlink="http://www.w3.org/1999/xlink" contentScriptType="application/ecmascript" contentStyleType="text/css" height="181px" preserveAspectRatio="none" style="width:287px;height:181px;" version="1.1" viewBox="0 0 287 181" width="287px" zoomAndPan="magnify"><defs><filter height="300%" id="fnsuiqt847jkm" width="300%" x="-1" y="-1"><feGaussianBlur result="blurOut" stdDeviation="2.0"/><feColorMatrix in="blurOut" result="blurOut2" type="matrix" values="0 0 0 0 0 0 0 0 0 0 0 0 0 0 0 0 0 0 .4 0"/><feOffset dx="4.0" dy="4.0" in="blurOut2" result="blurOut3"/><feBlend in="SourceGraphic" in2="blurOut3" mode="normal"/></filter></defs><g><!--MD5=[3c634b536ee83ca98b8e440922e2fe77]
class Dependency--><rect fill="#FEFECE" filter="url(#fnsuiqt847jkm)" height="48" id="Dependency" style="stroke: #A80036; stroke-width: 1.5;" width="110" x="166" y="116"/><ellipse cx="181" cy="132" fill="#ADD1B2" rx="11" ry="11" style="stroke: #A80036; stroke-width: 1.0;"/><path d="M183.9688,137.6406 Q183.3906,137.9375 182.75,138.0781 Q182.1094,138.2344 181.4063,138.2344 Q178.9063,138.2344 177.5781,136.5938 Q176.2656,134.9375 176.2656,131.8125 Q176.2656,128.6875 177.5781,127.0313 Q178.9063,125.375 181.4063,125.375 Q182.1094,125.375 182.75,125.5313 Q183.4063,125.6875 183.9688,125.9844 L183.9688,128.7031 Q183.3438,128.125 182.75,127.8594 Q182.1563,127.5781 181.5313,127.5781 Q180.1875,127.5781 179.5,128.6563 Q178.8125,129.7188 178.8125,131.8125 Q178.8125,133.9063 179.5,134.9844 Q180.1875,136.0469 181.5313,136.0469 Q182.1563,136.0469 182.75,135.7813 Q183.3438,135.5 183.9688,134.9219 L183.9688,137.6406 Z "/><text fill="#000000" font-family="sans-serif" font-size="12" lengthAdjust="spacingAndGlyphs" textLength="78" x="195" y="136.1543">Dependency</text><line style="stroke: #A80036; stroke-width: 1.5;" x1="167" x2="275" y1="148" y2="148"/><line style="stroke: #A80036; stroke-width: 1.5;" x1="167" x2="275" y1="156" y2="156"/><!--MD5=[a4cf14d1e275c2e13a37d6d1d59e17fa]
class TestBehaviour--><rect fill="#FEFECE" filter="url(#fnsuiqt847jkm)" height="48" id="TestBehaviour" style="stroke: #A80036; stroke-width: 1.5;" width="121" x="9.5" y="116"/><ellipse cx="24.5" cy="132" fill="#ADD1B2" rx="11" ry="11" style="stroke: #A80036; stroke-width: 1.0;"/><path d="M27.4688,137.6406 Q26.8906,137.9375 26.25,138.0781 Q25.6094,138.2344 24.9063,138.2344 Q22.4063,138.2344 21.0781,136.5938 Q19.7656,134.9375 19.7656,131.8125 Q19.7656,128.6875 21.0781,127.0313 Q22.4063,125.375 24.9063,125.375 Q25.6094,125.375 26.25,125.5313 Q26.9063,125.6875 27.4688,125.9844 L27.4688,128.7031 Q26.8438,128.125 26.25,127.8594 Q25.6563,127.5781 25.0313,127.5781 Q23.6875,127.5781 23,128.6563 Q22.3125,129.7188 22.3125,131.8125 Q22.3125,133.9063 23,134.9844 Q23.6875,136.0469 25.0313,136.0469 Q25.6563,136.0469 26.25,135.7813 Q26.8438,135.5 27.4688,134.9219 L27.4688,137.6406 Z "/><text fill="#000000" font-family="sans-serif" font-size="12" lengthAdjust="spacingAndGlyphs" textLength="89" x="38.5" y="136.1543">TestBehaviour</text><line style="stroke: #A80036; stroke-width: 1.5;" x1="10.5" x2="129.5" y1="148" y2="148"/><line style="stroke: #A80036; stroke-width: 1.5;" x1="10.5" x2="129.5" y1="156" y2="156"/><!--MD5=[83b3cf3d23d77c6f1e1b5291a241bc2a]
class MonoBehaviour--><rect fill="#FEFECE" filter="url(#fnsuiqt847jkm)" height="48" id="MonoBehaviour" style="stroke: #A80036; stroke-width: 1.5;" width="128" x="6" y="8"/><ellipse cx="21" cy="24" fill="#ADD1B2" rx="11" ry="11" style="stroke: #A80036; stroke-width: 1.0;"/><path d="M23.9688,29.6406 Q23.3906,29.9375 22.75,30.0781 Q22.1094,30.2344 21.4063,30.2344 Q18.9063,30.2344 17.5781,28.5938 Q16.2656,26.9375 16.2656,23.8125 Q16.2656,20.6875 17.5781,19.0313 Q18.9063,17.375 21.4063,17.375 Q22.1094,17.375 22.75,17.5313 Q23.4063,17.6875 23.9688,17.9844 L23.9688,20.7031 Q23.3438,20.125 22.75,19.8594 Q22.1563,19.5781 21.5313,19.5781 Q20.1875,19.5781 19.5,20.6563 Q18.8125,21.7188 18.8125,23.8125 Q18.8125,25.9063 19.5,26.9844 Q20.1875,28.0469 21.5313,28.0469 Q22.1563,28.0469 22.75,27.7813 Q23.3438,27.5 23.9688,26.9219 L23.9688,29.6406 Z "/><text fill="#000000" font-family="sans-serif" font-size="12" lengthAdjust="spacingAndGlyphs" textLength="96" x="35" y="28.1543">MonoBehaviour</text><line style="stroke: #A80036; stroke-width: 1.5;" x1="7" x2="133" y1="40" y2="40"/><line style="stroke: #A80036; stroke-width: 1.5;" x1="7" x2="133" y1="48" y2="48"/><!--MD5=[0d6b3c8b5ded319b7d84272a764e9fb6]
reverse link MonoBehaviour to TestBehaviour--><path d="M70,76.02 C70,89.58 70,104.04 70,115.68 " fill="none" id="MonoBehaviour&lt;-TestBehaviour" style="stroke: #A80036; stroke-width: 1.0;"/><polygon fill="none" points="63,76,70,56,77,76,63,76" style="stroke: #A80036; stroke-width: 1.0;"/><!--MD5=[826c0f005694d5ec446c4f9da3763b62]
link TestBehaviour to Dependency--><path d="M142.75,140 C142.75,140 149.52,140 152.36,140 " fill="none" id="TestBehaviour-Dependency" style="stroke: #A80036; stroke-width: 1.0;"/><polygon fill="#A80036" points="165.65,140,156.65,136,160.65,140,156.65,144,165.65,140" style="stroke: #A80036; stroke-width: 1.0;"/><line style="stroke: #A80036; stroke-width: 1.0;" x1="160.65" x2="152.65" y1="140" y2="140"/><polygon fill="#FFFFFF" points="130.75,140,136.75,144,142.75,140,136.75,136,130.75,140" style="stroke: #A80036; stroke-width: 1.0;"/><text fill="#000000" font-family="sans-serif" font-size="13" lengthAdjust="spacingAndGlyphs" textLength="80" x="138.8922" y="168.0616">Dependency</text><!--MD5=[41642163e91310e4adb2b4ea81a60fd3]
@startuml
class Dependency {
}
class TestBehaviour {
}
MonoBehaviour <|- - TestBehaviour
TestBehaviour o-> "Dependency" Dependency
@enduml

PlantUML version 1.2020.02(Sun Mar 01 10:22:07 GMT 2020)
(GPL source distribution)
Java Runtime: OpenJDK Runtime Environment
JVM: OpenJDK 64-Bit Server VM
Java Version: 11.0.9+11-Ubuntu-0ubuntu1
Operating System: Linux
Default Encoding: ANSI_X3.4-1968
Language: en
Country: US
--></g></svg>