<?xml version="1.0" encoding="UTF-8" standalone="no"?><svg xmlns="http://www.w3.org/2000/svg" xmlns:xlink="http://www.w3.org/1999/xlink" contentScriptType="application/ecmascript" contentStyleType="text/css" height="283px" preserveAspectRatio="none" style="width:279px;height:283px;" version="1.1" viewBox="0 0 279 283" width="279px" zoomAndPan="magnify"><defs><filter height="300%" id="f1ra8cnztevcsc" width="300%" x="-1" y="-1"><feGaussianBlur result="blurOut" stdDeviation="2.0"/><feColorMatrix in="blurOut" result="blurOut2" type="matrix" values="0 0 0 0 0 0 0 0 0 0 0 0 0 0 0 0 0 0 .4 0"/><feOffset dx="4.0" dy="4.0" in="blurOut2" result="blurOut3"/><feBlend in="SourceGraphic" in2="blurOut3" mode="normal"/></filter></defs><g><!--MD5=[949c007af799c7d20482b7ef9f22c52e]
class ExampleComponent--><rect fill="#FEFECE" filter="url(#f1ra8cnztevcsc)" height="48" id="ExampleComponent" style="stroke: #A80036; stroke-width: 1.5;" width="156" x="59.36" y="224"/><ellipse cx="74.36" cy="240" fill="#ADD1B2" rx="11" ry="11" style="stroke: #A80036; stroke-width: 1.0;"/><path d="M77.3288,245.6406 Q76.7506,245.9375 76.11,246.0781 Q75.4694,246.2344 74.7663,246.2344 Q72.2663,246.2344 70.9381,244.5938 Q69.6256,242.9375 69.6256,239.8125 Q69.6256,236.6875 70.9381,235.0313 Q72.2663,233.375 74.7663,233.375 Q75.4694,233.375 76.11,233.5313 Q76.7663,233.6875 77.3288,233.9844 L77.3288,236.7031 Q76.7038,236.125 76.11,235.8594 Q75.5163,235.5781 74.8913,235.5781 Q73.5475,235.5781 72.86,236.6563 Q72.1725,237.7188 72.1725,239.8125 Q72.1725,241.9063 72.86,242.9844 Q73.5475,244.0469 74.8913,244.0469 Q75.5163,244.0469 76.11,243.7813 Q76.7038,243.5 77.3288,242.9219 L77.3288,245.6406 Z "/><text fill="#000000" font-family="sans-serif" font-size="12" lengthAdjust="spacingAndGlyphs" textLength="124" x="88.36" y="244.1543">ExampleComponent</text><line style="stroke: #A80036; stroke-width: 1.5;" x1="60.36" x2="214.36" y1="256" y2="256"/><line style="stroke: #A80036; stroke-width: 1.5;" x1="60.36" x2="214.36" y1="264" y2="264"/><!--MD5=[83b3cf3d23d77c6f1e1b5291a241bc2a]
class MonoBehaviour--><rect fill="#FEFECE" filter="url(#f1ra8cnztevcsc)" height="48" id="MonoBehaviour" style="stroke: #A80036; stroke-width: 1.5;" width="128" x="73.36" y="8"/><ellipse cx="88.36" cy="24" fill="#ADD1B2" rx="11" ry="11" style="stroke: #A80036; stroke-width: 1.0;"/><path d="M91.3288,29.6406 Q90.7506,29.9375 90.11,30.0781 Q89.4694,30.2344 88.7663,30.2344 Q86.2663,30.2344 84.9381,28.5938 Q83.6256,26.9375 83.6256,23.8125 Q83.6256,20.6875 84.9381,19.0313 Q86.2663,17.375 88.7663,17.375 Q89.4694,17.375 90.11,17.5313 Q90.7663,17.6875 91.3288,17.9844 L91.3288,20.7031 Q90.7038,20.125 90.11,19.8594 Q89.5163,19.5781 88.8913,19.5781 Q87.5475,19.5781 86.86,20.6563 Q86.1725,21.7188 86.1725,23.8125 Q86.1725,25.9063 86.86,26.9844 Q87.5475,28.0469 88.8913,28.0469 Q89.5163,28.0469 90.11,27.7813 Q90.7038,27.5 91.3288,26.9219 L91.3288,29.6406 Z "/><text fill="#000000" font-family="sans-serif" font-size="12" lengthAdjust="spacingAndGlyphs" textLength="96" x="102.36" y="28.1543">MonoBehaviour</text><line style="stroke: #A80036; stroke-width: 1.5;" x1="74.36" x2="200.36" y1="40" y2="40"/><line style="stroke: #A80036; stroke-width: 1.5;" x1="74.36" x2="200.36" y1="48" y2="48"/><!--MD5=[24245c76612ab5d2bfc4fac89aedecd3]
class OtherComponent--><rect fill="#FEFECE" filter="url(#f1ra8cnztevcsc)" height="48" id="OtherComponent" style="stroke: #A80036; stroke-width: 1.5;" width="139" x="129.86" y="116"/><ellipse cx="144.86" cy="132" fill="#ADD1B2" rx="11" ry="11" style="stroke: #A80036; stroke-width: 1.0;"/><path d="M147.8288,137.6406 Q147.2506,137.9375 146.61,138.0781 Q145.9694,138.2344 145.2663,138.2344 Q142.7663,138.2344 141.4381,136.5938 Q140.1256,134.9375 140.1256,131.8125 Q140.1256,128.6875 141.4381,127.0313 Q142.7663,125.375 145.2663,125.375 Q145.9694,125.375 146.61,125.5313 Q147.2663,125.6875 147.8288,125.9844 L147.8288,128.7031 Q147.2038,128.125 146.61,127.8594 Q146.0163,127.5781 145.3913,127.5781 Q144.0475,127.5781 143.36,128.6563 Q142.6725,129.7188 142.6725,131.8125 Q142.6725,133.9063 143.36,134.9844 Q144.0475,136.0469 145.3913,136.0469 Q146.0163,136.0469 146.61,135.7813 Q147.2038,135.5 147.8288,134.9219 L147.8288,137.6406 Z "/><text fill="#000000" font-family="sans-serif" font-size="12" lengthAdjust="spacingAndGlyphs" textLength="107" x="158.86" y="136.1543">OtherComponent</text><line style="stroke: #A80036; stroke-width: 1.5;" x1="130.86" x2="267.86" y1="148" y2="148"/><line style="stroke: #A80036; stroke-width: 1.5;" x1="130.86" x2="267.86" y1="156" y2="156"/><!--MD5=[838748de7d08bbc9b9acc5b130f7f67e]
reverse link MonoBehaviour to ExampleComponent--><path d="M121.96,75.48 C118.02,88.32 114.34,102.58 112.36,116 C109.25,137.11 109.25,142.89 112.36,164 C115.41,184.69 122.52,207.39 128.38,223.8 " fill="none" id="MonoBehaviour&lt;-ExampleComponent" style="stroke: #A80036; stroke-width: 1.0;"/><polygon fill="none" points="115.42,72.96,128.38,56.2,128.71,77.38,115.42,72.96" style="stroke: #A80036; stroke-width: 1.0;"/><!--MD5=[bb703bc5e0e3de2d3e85cd3d4bd4eb6a]
reverse link MonoBehaviour to OtherComponent--><path d="M161.11,73.61 C169.44,87.85 178.5,103.35 185.72,115.68 " fill="none" id="MonoBehaviour&lt;-OtherComponent" style="stroke: #A80036; stroke-width: 1.0;"/><polygon fill="none" points="154.87,76.8,150.81,56,166.95,69.73,154.87,76.8" style="stroke: #A80036; stroke-width: 1.0;"/><!--MD5=[931cab2b3f1623413e2cb92cbb03b596]
link OtherComponent to ExampleComponent--><path d="M185.91,164 C176.47,180.14 163.79,201.82 153.75,218.97 " fill="none" id="OtherComponent-&gt;ExampleComponent" style="stroke: #A80036; stroke-width: 1.0;"/><polygon fill="#A80036" points="151,223.68,158.9935,217.9264,153.522,219.3627,152.0857,213.8912,151,223.68" style="stroke: #A80036; stroke-width: 1.0;"/><text fill="#000000" font-family="sans-serif" font-size="13" lengthAdjust="spacingAndGlyphs" textLength="130" x="8.481" y="213.007">ExampleComponent</text><!--MD5=[b234e3a5b1dd225354064f9c247d2448]
@startuml
class ExampleComponent {
}
MonoBehaviour <|- - ExampleComponent
class OtherComponent {
}
MonoBehaviour <|- - OtherComponent
OtherComponent - -> "ExampleComponent" ExampleComponent
@enduml

PlantUML version 1.2020.02(Sun Mar 01 10:22:07 GMT 2020)
(GPL source distribution)
Java Runtime: OpenJDK Runtime Environment
JVM: OpenJDK 64-Bit Server VM
Java Version: 11.0.9+11-Ubuntu-0ubuntu1
Operating System: Linux
Default Encoding: ANSI_X3.4-1968
Language: en
Country: US
--></g></svg>